<svg height="512pt" viewBox="0 0 512 512" width="512pt" xmlns="http://www.w3.org/2000/svg"><path fill="#2d4cfa" d="m480 360.210938v-50.710938c0-15.539062-3.582031-30.257812-9.964844-43.371094h6.652344c19.472656 0 35.3125-15.84375 35.3125-35.316406 0-19.46875-15.84375-35.3125-35.3125-35.3125h-34.242188l-26.222656-87.742188c-4.675781-15.652343-14.074218-29.082031-27.175781-38.84375-13.101563-9.757812-28.660156-14.914062-44.996094-14.914062h-15.382812v-24.667969c0-16.171875-13.160157-29.332031-29.335938-29.332031h-86.664062c-16.175781 0-29.335938 13.160156-29.335938 29.332031v24.667969h-15.382812c-16.335938 0-31.894531 5.15625-44.996094 14.914062-13.101563 9.761719-22.5 23.191407-27.175781 38.84375l-26.222656 87.742188h-34.242188c-19.46875 0-35.3125 15.84375-35.3125 35.3125 0 19.472656 15.84375 35.3125 35.3125 35.3125h6.652344c-6.382813 13.117188-9.964844 27.835938-9.964844 43.375v50.710938c-18.347656 4.5-32 21.074218-32 40.789062 0 23.160156 18.839844 42 42 42h12v27c0 23.160156 18.839844 42 42 42s42-18.839844 42-42v-27h236v27c0 23.160156 18.839844 42 42 42s42-18.839844 42-42v-27h12c23.160156 0 42-18.839844 42-42 0-19.714844-13.652344-36.289062-32-40.789062zm-3.3125-144.710938c8.445312 0 15.3125 6.867188 15.3125 15.3125s-6.867188 15.3125-15.3125 15.3125h-19.109375l-9.152344-30.625zm-79.625-102.019531 32.761719 109.628906c-14.546875-8.335937-31.386719-13.109375-49.324219-13.109375h-134.773438l127.550782-127.550781c11.179687 6.996093 19.855468 17.894531 23.785156 31.03125zm-193.730469-84.148438c0-5.144531 4.1875-9.332031 9.335938-9.332031h86.664062c5.148438 0 9.335938 4.1875 9.335938 9.332031v24.667969h-105.335938zm-88.394531 84.148438c6.949219-23.246094 28.75-39.480469 53.011719-39.480469h89.242187l-64.980468 64.980469c-3.90625 3.90625-3.90625 10.238281 0 14.140625 1.953124 1.953125 4.511718 2.929687 7.070312 2.929687s5.117188-.976562 7.070312-2.929687l79.125-79.121094h58.574219c2.9375 0 5.84375.242188 8.6875.703125l-134.890625 134.894531c-.132812.128906-.246094.265625-.367187.402344h-85.980469c-17.9375 0-34.777344 4.773438-49.324219 13.109375zm-94.9375 117.332031c0-8.445312 6.867188-15.3125 15.3125-15.3125h28.261719l-9.152344 30.628906h-19.109375c-8.445312 0-15.3125-6.871094-15.3125-15.316406zm98 239.1875c0 12.132812-9.867188 22-22 22s-22-9.867188-22-22v-27h44zm320 0c0 12.132812-9.867188 22-22 22s-22-9.867188-22-22v-27h44zm32-47h-428c-12.132812 0-22-9.867188-22-22s9.867188-22 22-22h167c5.523438 0 10-4.476562 10-10s-4.476562-10-10-10h-157v-49.5c0-43.835938 35.664062-79.5 79.5-79.5h249c43.835938 0 79.5 35.664062 79.5 79.5v49.5h-157c-5.523438 0-10 4.476562-10 10s4.476562 10 10 10h167c12.132812 0 22 9.867188 22 22s-9.867188 22-22 22zm0 0"/><path fill="#2d4cfa" d="m173.179688 182.160156c2.628906 0 5.199218-1.070312 7.070312-2.929687 1.859375-1.871094 2.929688-4.441407 2.929688-7.070313 0-2.640625-1.070313-5.210937-2.929688-7.070312s-4.441406-2.929688-7.070312-2.929688c-2.628907 0-5.210938 1.070313-7.070313 2.929688-1.859375 1.851562-2.929687 4.429687-2.929687 7.070312 0 2.628906 1.070312 5.210938 2.929687 7.070313s4.441406 2.929687 7.070313 2.929687zm0 0"/><path fill="#2d4cfa" d="m128 257c-22.605469 0-41 18.394531-41 41s18.394531 41 41 41 41-18.394531 41-41-18.394531-41-41-41zm0 62c-11.578125 0-21-9.421875-21-21s9.421875-21 21-21 21 9.421875 21 21-9.421875 21-21 21zm0 0"/><path fill="#2d4cfa" d="m384 339c22.605469 0 41-18.394531 41-41s-18.394531-41-41-41-41 18.394531-41 41 18.394531 41 41 41zm0-62c11.578125 0 21 9.421875 21 21s-9.421875 21-21 21-21-9.421875-21-21 9.421875-21 21-21zm0 0"/><path fill="#2d4cfa" d="m313 296.128906c0-5.523437-4.476562-10-10-10h-94c-5.523438 0-10 4.476563-10 10 0 5.519532 4.476562 10 10 10h94c5.523438 0 10-4.480468 10-10zm0 0"/><path fill="#2d4cfa" d="m256 359c-2.628906 0-5.210938 1.070312-7.070312 2.929688-1.859376 1.859374-2.929688 4.441406-2.929688 7.070312s1.070312 5.210938 2.929688 7.070312c1.859374 1.859376 4.441406 2.929688 7.070312 2.929688s5.210938-1.070312 7.070312-2.929688c1.859376-1.859374 2.929688-4.441406 2.929688-7.070312s-1.070312-5.210938-2.929688-7.070312c-1.859374-1.859376-4.441406-2.929688-7.070312-2.929688zm0 0"/></svg>