<svg height="512pt" viewBox="-62 0 512 512" width="512pt" xmlns="http://www.w3.org/2000/svg"><path d="m248 131.65625v-25.65625c0-9.183594-4.789062-17.265625-12-21.890625v-74.109375c0-5.523438-4.476562-10-10-10s-10 4.476562-10 10v70h-44v-70c0-5.523438-4.476562-10-10-10s-10 4.476562-10 10v74.109375c-7.210938 4.625-12 12.707031-12 21.890625v25.65625c-80.78125 23.445312-140 98.105469-140 186.34375 0 106.972656 87.027344 194 194 194s194-87.027344 194-194c0-88.238281-59.21875-162.898438-140-186.34375zm-88-25.65625c0-3.308594 2.691406-6 6-6h56c3.308594 0 6 2.691406 6 6v20.984375c-11.042969-1.957031-22.402344-2.984375-34-2.984375s-22.957031 1.027344-34 2.984375zm34 386c-95.945312 0-174-78.054688-174-174s78.054688-174 174-174 174 78.054688 174 174-78.054688 174-174 174zm0 0"/><path d="m194 168c-22.859375 0-44.808594 5.011719-65.242188 14.894531-4.972656 2.40625-7.054687 8.386719-4.648437 13.359375 2.40625 4.96875 8.386719 7.050782 13.359375 4.644532 17.695312-8.558594 36.714844-12.898438 56.53125-12.898438 71.683594 0 130 58.316406 130 130s-58.316406 130-130 130-130-58.316406-130-130c0-20.160156 4.484375-39.480469 13.332031-57.417969 2.445313-4.953125.410157-10.949219-4.546875-13.390625-4.949218-2.441406-10.945312-.410156-13.390625 4.546875-10.214843 20.710938-15.394531 43.007813-15.394531 66.261719 0 82.710938 67.289062 150 150 150s150-67.289062 150-150-67.289062-150-150-150zm0 0"/><path d="m161.015625 270.875c-3.90625-3.90625-10.238281-3.90625-14.144531 0-3.902344 3.902344-3.902344 10.234375 0 14.140625l17.085937 17.085937c-2.519531 4.746094-3.957031 10.15625-3.957031 15.898438 0 18.746094 15.253906 34 34 34s34-15.253906 34-34c0-5.742188-1.4375-11.152344-3.960938-15.898438l48.28125-48.28125c3.90625-3.90625 3.90625-10.234374 0-14.140624s-10.234374-3.90625-14.140624 0l-48.28125 48.277343c-4.746094-2.519531-10.15625-3.957031-15.898438-3.957031s-11.152344 1.4375-15.898438 3.960938zm46.984375 47.125c0 7.71875-6.28125 14-14 14s-14-6.28125-14-14 6.28125-14 14-14 14 6.28125 14 14zm0 0"/><path d="m201.070312 221.070312c1.859376-1.859374 2.929688-4.441406 2.929688-7.070312s-1.070312-5.210938-2.929688-7.070312c-1.859374-1.859376-4.441406-2.929688-7.070312-2.929688s-5.210938 1.070312-7.070312 2.929688c-1.859376 1.859374-2.929688 4.441406-2.929688 7.070312s1.070312 5.210938 2.929688 7.070312c1.859374 1.859376 4.441406 2.929688 7.070312 2.929688s5.210938-1.070312 7.070312-2.929688zm0 0"/><path d="m186.929688 414.929688c-1.859376 1.859374-2.929688 4.441406-2.929688 7.070312s1.070312 5.210938 2.929688 7.070312c1.859374 1.859376 4.441406 2.929688 7.070312 2.929688s5.210938-1.070312 7.070312-2.929688c1.859376-1.859374 2.929688-4.441406 2.929688-7.070312s-1.070312-5.210938-2.929688-7.070312c-1.859374-1.859376-4.441406-2.929688-7.070312-2.929688s-5.210938 1.070312-7.070312 2.929688zm0 0"/><path d="m305.070312 325.070312c1.859376-1.859374 2.929688-4.441406 2.929688-7.070312s-1.070312-5.210938-2.929688-7.070312c-1.859374-1.859376-4.441406-2.929688-7.070312-2.929688s-5.210938 1.070312-7.070312 2.929688c-1.859376 1.859374-2.929688 4.441406-2.929688 7.070312s1.070312 5.210938 2.929688 7.070312c1.859374 1.859376 4.441406 2.929688 7.070312 2.929688s5.210938-1.070312 7.070312-2.929688zm0 0"/><path d="m90 328c2.628906 0 5.210938-1.070312 7.070312-2.929688 1.859376-1.859374 2.929688-4.441406 2.929688-7.070312s-1.070312-5.210938-2.929688-7.070312c-1.859374-1.859376-4.441406-2.929688-7.070312-2.929688s-5.210938 1.070312-7.070312 2.929688c-1.859376 1.859374-2.929688 4.441406-2.929688 7.070312s1.070312 5.210938 2.929688 7.070312c1.859374 1.859376 4.441406 2.929688 7.070312 2.929688zm0 0"/><path d="m95.269531 228.769531c2.640625 0 5.210938-1.070312 7.070313-2.929687 1.871094-1.859375 2.929687-4.441406 2.929687-7.070313 0-2.628906-1.058593-5.210937-2.929687-7.070312-1.859375-1.871094-4.429688-2.929688-7.070313-2.929688-2.628906 0-5.210937 1.058594-7.070312 2.929688-1.859375 1.859375-2.929688 4.441406-2.929688 7.070312 0 2.628907 1.070313 5.210938 2.929688 7.070313s4.441406 2.929687 7.070312 2.929687zm0 0"/></svg>